<svg width="29" height="32" viewBox="0 0 29 32" fill="none" xmlns="http://www.w3.org/2000/svg">
<g clip-path="url(#clip0_904_827)">
<path d="M29 0.70482C28.3354 0.520757 27.6708 0.152629 27.0061 0.0912748C20.7292 -0.338207 14.563 0.704823 8.61839 4.14068C6.7353 5.24506 4.88914 6.71757 3.19067 8.4355C1.34451 10.2148 -0.16934 12.7303 0.0152763 16.657C0.199892 20.5837 2.04605 22.4243 3.96606 23.9582C6.29222 25.7988 8.803 26.5964 11.3138 27.1486C11.8676 27.2713 12.4584 27.394 13.0861 28.0076C11.8676 28.9893 10.6861 29.9709 9.39377 31.014C9.98455 32.3638 10.6492 31.9956 11.1292 31.8116C13.8246 30.7072 16.52 29.5415 19.1784 28.253C20.36 27.7008 20.5077 26.167 19.5846 25.0012C17.4061 22.363 14.9323 20.8291 12.2369 20.1542C12.163 20.1542 12.0522 20.3383 11.8676 20.5223C11.9784 23.0379 13.7507 22.363 14.4892 24.2036C10.6492 23.7741 7.06761 23.0379 3.78144 20.0315C3.37529 19.6634 3.00605 19.1725 2.67375 18.6204C1.75067 17.0865 1.60298 15.4913 2.52606 13.9574C3.55991 12.2395 4.74145 10.6443 5.99683 9.47853C8.98762 6.71758 12.2369 5.12235 15.5599 4.20204C19.2892 3.22036 23.0554 2.66817 26.8215 1.93191C27.4861 1.8092 28.1877 1.74785 28.8892 1.62514C28.9261 1.37972 28.9631 1.07295 29 0.70482Z" fill="#FF3816"/>
</g>
<defs>
<clipPath id="clip0_904_827">
<rect width="32" height="29" fill="white" transform="matrix(-4.37114e-08 1 1 4.37114e-08 0 0)"/>
</clipPath>
</defs>
</svg>
