<svg width="33" height="32" viewBox="0 0 33 32" fill="none" xmlns="http://www.w3.org/2000/svg">
<path d="M25.6341 6.74673L26.6319 6.68022C26.5985 6.18035 26.2005 5.78228 25.7006 5.74895L25.6341 6.74673ZM9.60628 22.7745L8.74879 23.289C8.83324 23.4297 8.95104 23.5475 9.09179 23.632L9.60628 22.7745ZM6.46037 24.5054C6.06985 24.896 6.06985 25.5291 6.46037 25.9197C6.8509 26.3102 7.48406 26.3102 7.87459 25.9197L6.46037 24.5054ZM15.4171 18.3772C15.8076 17.9867 15.8076 17.3535 15.4171 16.963C15.0265 16.5724 14.3934 16.5724 14.0028 16.963L15.4171 18.3772ZM24.6363 6.81325C25.098 13.7397 23.4612 18.819 20.8021 21.4781C19.4882 22.792 17.9144 23.5319 16.1551 23.6475C14.3844 23.7638 12.3457 23.2519 10.1208 21.917L9.09179 23.632C11.5809 25.1254 14.0206 25.792 16.2862 25.6432C18.5633 25.4936 20.584 24.5246 22.2163 22.8923C25.4498 19.6588 27.1128 13.8958 26.6319 6.68022L24.6363 6.81325ZM10.4638 22.26C9.12883 20.0351 8.61691 17.9963 8.73324 16.2256C8.84882 14.4663 9.58869 12.8925 10.9026 11.5786C13.5617 8.91951 18.641 7.28274 25.5675 7.74452L25.7006 5.74895C18.485 5.26789 12.7219 6.93093 9.48843 10.1644C7.8561 11.7967 6.88713 13.8174 6.73754 16.0945C6.5887 18.3602 7.2553 20.7998 8.74879 23.289L10.4638 22.26ZM7.87459 25.9197L15.4171 18.3772L14.0028 16.963L6.46037 24.5054L7.87459 25.9197Z" fill="#202024"/>
</svg>
