<svg width="24" height="24" viewBox="0 0 24 24" fill="none" xmlns="http://www.w3.org/2000/svg">
<path d="M6.44444 8.57143L10.6111 12C11.0052 12.3246 11.4951 12.5014 12 12.5014C12.5049 12.5014 12.9948 12.3246 13.3889 12L17.5556 8.57143M22 17.7143V6.28571C22 5.67951 21.7659 5.09812 21.3491 4.66947C20.9324 4.24082 20.3671 4 19.7778 4H4.22222C3.63285 4 3.06762 4.24082 2.65087 4.66947C2.23413 5.09812 2 5.67951 2 6.28571V17.7143C2 18.3205 2.23413 18.9019 2.65087 19.3305C3.06762 19.7592 3.63285 20 4.22222 20H19.7778C20.3671 20 20.9324 19.7592 21.3491 19.3305C21.7659 18.9019 22 18.3205 22 17.7143Z" stroke="#FFF7E3" stroke-width="1.5" stroke-linecap="round" stroke-linejoin="round"/>
</svg>
